# Blender v2.78 (sub 0) OBJ File: 'untitled.blend'
# www.blender.org
mtllib tile_ocean9.mtl
o tile_dirt_River12_Cylinder.001
v 0.707727 -0.500003 -0.399044
v 0.708058 -0.500000 0.416405
v 0.708058 -0.500000 0.592462
v 0.867021 -0.500000 0.500267
v 0.867034 -0.500000 -0.298167
v 0.867037 -0.500000 -0.499795
v 0.708758 -0.500000 -0.591278
v 0.000762 -0.500000 -1.000384
v -0.159841 -0.499995 -0.909343
v -0.703039 -0.500000 -0.592962
v -0.866021 -0.500000 -0.499719
v -0.866021 -0.500000 0.503717
v -0.703064 -0.500000 0.598146
v 0.001009 -1.000000 -0.999942
v 0.866993 -1.000000 -0.499598
v 0.867021 -1.000000 0.500267
v -0.001050 -1.000000 1.003775
v -0.703064 -1.000000 0.598146
v -0.866021 -1.000000 0.503717
v -0.866021 -1.000000 -0.499770
v -0.000963 -0.500000 1.003678
v -0.703057 -1.000000 0.598946
v -0.159842 -0.500001 0.908620
v -0.703054 -0.500000 0.598753
vt 0.8750 0.3750
vt 0.8750 0.3750
vt 0.8750 0.3750
vt 0.8750 0.3750
vt 0.8750 0.3750
vt 0.8750 0.3750
vt 0.1250 0.3750
vt 0.1250 0.3750
vt 0.1250 0.3750
vt 0.1250 0.3750
vt 0.1250 0.3750
vt 0.1250 0.3750
vt 0.1250 0.3750
vt 0.1250 0.3750
vt 0.1250 0.3750
vt 0.1250 0.3750
vt 0.1250 0.3750
vt 0.1250 0.3750
vt 0.1250 0.3750
vt 0.1250 0.3750
vt 0.1250 0.3750
vt 0.1250 0.3750
vt 0.1250 0.3750
vt 0.1250 0.3750
vt 0.1250 0.3750
vt 0.8750 0.3750
vt 0.8750 0.3750
vt 0.8750 0.3750
vt 0.8750 0.3750
vt 0.8750 0.3750
vt 0.8750 0.3750
vt 0.8750 0.3750
vt 0.1250 0.3750
vt 0.1250 0.3750
vt 0.1250 0.3750
vt 0.1250 0.3750
vt 0.1250 0.3750
vn -0.0000 1.0000 0.0000
vn -0.8652 0.0000 -0.5014
vn -0.0000 -1.0000 -0.0000
vn -0.5014 -0.0000 0.8652
vn -0.5041 0.0026 0.8637
vn -0.4955 0.0003 0.8686
vn -0.4972 0.0029 0.8676
vn -1.0000 -0.0000 0.0000
vn -0.4990 0.0011 -0.8666
vn -0.4151 0.5552 -0.7207
vn -0.4998 -0.0020 -0.8662
vn 0.5003 -0.0004 -0.8658
vn 0.5003 -0.0005 -0.8659
vn 0.5003 -0.0005 -0.8658
vn 1.0000 -0.0001 -0.0000
vn 0.0000 0.0000 -1.0000
vn 0.5017 0.0000 0.8650
vn 0.5017 0.0001 0.8650
vn -0.5027 0.0049 0.8644
vn -0.5134 0.0003 0.8581
vn -0.4931 -0.0010 -0.8699
vn -0.4169 0.5504 -0.7233
vn -0.4966 0.0001 -0.8680
vn 0.5004 -0.0004 -0.8658
vn 1.0000 -0.0000 0.0000
usemtl Material.002
s 1
f 1/1/1 5/2/1 6/3/1
f 10/4/1 12/5/1 13/6/2
f 15/7/3 18/8/3 14/9/3
f 13/10/4 19/11/4 18/8/4
f 23/12/5 24/13/6 22/14/7
f 19/11/8 11/15/8 20/16/8
f 20/16/9 10/17/10 14/9/11
f 7/18/12 14/9/13 8/19/14
f 15/7/15 6/20/15 5/21/15
f 2/22/1 13/10/16 23/12/1
f 16/23/17 3/24/17 17/25/18
f 2/26/1 3/27/1 4/28/1
f 4/28/1 5/2/1 2/26/1
f 6/3/1 7/29/1 1/1/1
f 8/30/1 9/31/1 1/1/1
f 1/1/1 2/26/1 5/2/1
f 7/29/1 8/30/1 1/1/1
f 10/4/1 11/32/1 12/5/1
f 20/16/3 14/9/3 18/8/3
f 15/7/3 16/23/3 18/8/3
f 17/25/3 18/8/3 16/23/3
f 19/11/3 20/16/3 18/8/3
f 13/10/4 12/33/4 19/11/4
f 22/14/7 17/25/19 23/12/5
f 21/34/20 23/12/5 17/25/19
f 19/11/8 12/33/8 11/15/8
f 8/19/21 14/9/11 9/35/22
f 20/16/9 11/15/23 10/17/10
f 10/17/10 9/35/22 14/9/11
f 7/18/12 6/20/24 15/7/12
f 15/7/12 14/9/13 7/18/12
f 5/21/15 4/36/25 16/23/25
f 16/23/25 15/7/15 5/21/15
f 21/34/1 3/24/1 23/12/1
f 2/22/1 1/37/1 13/10/16
f 9/35/22 10/17/10 1/37/1
f 23/12/1 3/24/1 2/22/1
f 10/17/10 13/10/16 1/37/1
f 21/34/18 17/25/18 3/24/17
f 16/23/17 4/36/17 3/24/17
l 24 10
