# Blender v2.78 (sub 0) OBJ File: 'untitled.blend'
# www.blender.org
mtllib tile_sand_River11.mtl
o tile_ocean9_Cylinder
v -0.866025 -1.000000 -0.500000
v 0.866025 -1.000000 0.500000
v 0.866025 -1.000000 -0.500000
v 0.000000 -0.500000 0.800000
v -0.866025 -0.500000 0.500000
v -0.866025 -0.500000 0.300894
v 0.000000 -0.500000 -1.000000
v -0.866025 -0.500000 -0.500000
v 0.000000 -1.000000 -1.000000
v 0.173205 -0.500000 -0.900000
v 0.866025 -0.500000 0.500000
v 0.866025 -0.500000 0.300000
v 0.000000 -1.000000 1.000000
v 0.000000 -0.500000 1.000000
v -0.866025 -0.500000 -0.300894
v -0.866025 -1.000000 0.500000
v 0.866025 -0.500000 -0.500000
v 0.866025 -0.000000 0.300000
v 0.866025 0.000000 -0.500000
v 0.000000 -0.000000 0.800000
v -0.866025 -0.000000 0.300894
v 0.173205 0.000000 -0.900000
v -0.866025 0.000000 -0.300894
v -0.866025 -0.875698 0.300894
v -0.866025 -1.000000 0.300894
v -0.751071 -1.000000 -0.300894
v 0.866025 -0.500000 -0.300894
v -0.866025 -1.000000 -0.300894
v 0.866025 -1.000000 -0.300894
v 0.866025 -1.000000 0.300000
v -0.521163 -1.000000 -0.300894
v 0.173205 -1.000000 -0.900000
vt 0.3750 0.6250
vt 0.3750 0.6250
vt 0.3750 0.6250
vt 0.3750 0.6250
vt 0.1250 0.3750
vt 0.1250 0.3750
vt 0.1250 0.3750
vt 0.1250 0.3750
vt 0.1250 0.3750
vt 0.1250 0.3750
vt 0.1250 0.3750
vt 0.1250 0.3750
vt 0.1250 0.3750
vt 0.1250 0.3750
vt 0.1250 0.3750
vt 0.1250 0.3750
vt 0.1250 0.3750
vt 0.1250 0.3750
vt 0.1250 0.3750
vt 0.1250 0.3750
vt 0.1250 0.3750
vt 0.1250 0.3750
vt 0.3750 0.6250
vt 0.3750 0.6250
vt 0.3750 0.6250
vt 0.3750 0.6250
vt 0.3750 0.6250
vt 0.3750 0.6250
vt 0.3750 0.6250
vt 0.3750 0.6250
vt 0.3750 0.6250
vt 0.3750 0.6250
vt 0.1250 0.3750
vt 0.3750 0.6250
vt 0.3750 0.6250
vt 0.3750 0.6250
vt 0.3750 0.6250
vt 0.3750 0.6250
vt 0.3750 0.6250
vt 0.3750 0.6250
vt 0.3750 0.6250
vt 0.3750 0.6250
vt 0.3750 0.6250
vt 0.3750 0.6250
vt 0.3750 0.6250
vt 0.1250 0.3750
vt 0.3750 0.6250
vn -0.0000 -1.0000 -0.0000
vn 0.0002 0.8385 0.5449
vn -0.8079 0.3595 0.4669
vn 0.0000 1.0000 0.0000
vn -0.5000 0.0000 -0.8660
vn 0.5000 0.0000 -0.8660
vn 1.0000 -0.0000 0.0000
vn 0.5000 -0.0000 0.8660
vn -0.8080 0.3595 -0.4668
vn 0.0003 0.3590 -0.9334
vn -0.5000 -0.0000 0.8660
vn -1.0000 0.0000 0.0000
vn 0.8660 -0.0000 -0.5000
vn 0.0003 0.6100 -0.7924
vn 0.8082 0.3592 0.4666
vn 0.0003 0.6101 0.7924
vn -0.6861 0.6099 0.3965
vn 0.6862 0.6100 0.3962
vn -0.6861 0.6099 -0.3964
usemtl Material.001
s 1
f 1/1/1 3/2/1 29/3/1 31/4/1
f 4/5/2 6/6/3 5/7/4
f 1/8/5 8/9/5 7/10/5
f 10/11/6 32/12/6 9/13/6
f 2/14/7 12/15/7 11/16/7
f 11/16/8 14/17/8 13/18/8
f 15/19/9 10/11/10 7/10/4
f 13/18/11 14/17/11 5/7/11
f 6/6/12 24/20/12 25/21/12 16/22/12 5/7/12
f 17/23/13 10/24/10 22/25/14 19/26/13
f 3/2/1 1/1/1 9/27/1 32/28/1
f 1/1/1 26/29/1 28/30/1
f 13/31/1 26/29/1 31/4/1 2/32/1
f 4/5/2 11/16/4 12/15/15
f 14/17/4 4/5/2 5/7/4
f 4/5/2 14/17/4 11/16/4
f 1/8/5 7/10/5 9/13/5
f 7/10/6 10/11/6 9/13/6
f 11/16/8 13/18/8 2/14/8
f 15/19/9 7/10/4 8/9/4
f 13/18/11 5/7/11 16/22/11
f 17/23/6 3/2/6 32/28/6 10/24/6
f 28/33/12 15/19/12 8/9/12 1/8/12
f 25/34/12 24/35/12 6/36/12 15/37/12 28/30/12
f 6/36/3 4/38/2 20/39/16 21/40/17
f 4/38/2 12/41/15 18/42/18 20/39/16
f 15/37/9 6/36/3 21/40/17 23/43/19
f 22/25/14 20/39/16 18/42/18
f 20/39/16 23/43/19 21/40/17
f 23/43/19 20/39/16 22/25/14
f 19/26/4 22/25/14 18/42/18
f 12/41/15 27/44/7 17/23/13 19/26/13 18/42/18
f 10/24/10 15/37/9 23/43/19 22/25/14
f 28/30/1 26/29/1 13/31/1 16/45/1 25/34/1
f 31/4/1 26/29/1 1/1/1
f 30/46/7 12/15/7 2/14/7
f 29/3/7 3/2/7 17/23/7 27/44/7 12/41/7 30/47/7
f 31/4/1 29/3/1 30/47/1 2/32/1
